<svg width="203" height="25" viewBox="0 0 203 25" fill="none" xmlns="http://www.w3.org/2000/svg">
<path d="M11.096 24.512C8.984 24.512 7.096 24.0427 5.432 23.104C3.768 22.1653 2.46667 20.8 1.528 19.008C0.589333 17.216 0.12 15.104 0.12 12.672C0.12 10.304 0.568 8.224 1.464 6.432C2.36 4.61867 3.64 3.22133 5.304 2.24C6.98933 1.25867 8.96267 0.768 11.224 0.768C17.2827 0.768 20.824 3.73333 21.848 9.664L15.352 9.888C15.1173 8.58667 14.6373 7.584 13.912 6.88C13.208 6.15467 12.312 5.792 11.224 5.792C9.70933 5.792 8.54667 6.42133 7.736 7.68C6.94667 8.91733 6.552 10.5813 6.552 12.672C6.552 14.7627 6.95733 16.4267 7.768 17.664C8.57867 18.88 9.70933 19.488 11.16 19.488C13.5493 19.488 14.9467 18.0373 15.352 15.136L21.88 15.36C21.3893 18.368 20.2373 20.6507 18.424 22.208C16.6107 23.744 14.168 24.512 11.096 24.512ZM35.4838 24.512C33.1158 24.512 31.0571 24.032 29.3078 23.072C27.5798 22.112 26.2571 20.7467 25.3398 18.976C24.4224 17.184 23.9638 15.0827 23.9638 12.672C23.9638 10.2613 24.4224 8.16 25.3398 6.368C26.2571 4.576 27.5798 3.2 29.3078 2.24C31.0571 1.25867 33.1158 0.768 35.4838 0.768C37.8518 0.768 39.8998 1.25867 41.6278 2.24C43.3771 3.2 44.7104 4.576 45.6278 6.368C46.5451 8.16 47.0038 10.2613 47.0038 12.672C47.0038 15.0827 46.5451 17.184 45.6278 18.976C44.7104 20.7467 43.3771 22.112 41.6278 23.072C39.8998 24.032 37.8518 24.512 35.4838 24.512ZM35.4838 19.488C37.0838 19.488 38.3318 18.9013 39.2278 17.728C40.1238 16.5333 40.5718 14.848 40.5718 12.672C40.5718 10.496 40.1238 8.81067 39.2278 7.616C38.3318 6.4 37.0838 5.792 35.4838 5.792C33.8838 5.792 32.6358 6.4 31.7398 7.616C30.8438 8.81067 30.3958 10.496 30.3958 12.672C30.3958 14.848 30.8438 16.5333 31.7398 17.728C32.6358 18.9013 33.8838 19.488 35.4838 19.488ZM49.5778 1.28H55.8498V18.976H65.7378V24H49.5778V1.28ZM68.8278 1.28H75.0998V18.976H84.9878V24H68.8278V1.28ZM95.3373 1.28H102.473L110.665 24H104.265L102.985 20.256H94.7933L93.5133 24H87.1453L95.3373 1.28ZM101.353 15.392L98.9213 8.192L96.4573 15.392H101.353ZM113.515 1.28H123.051C126.017 1.28 128.278 1.792 129.835 2.816C131.393 3.81867 132.171 5.376 132.171 7.488C132.171 8.85333 131.766 9.94133 130.955 10.752C130.166 11.5413 129.003 12.032 127.467 12.224V12.288C129.366 12.48 130.785 13.0347 131.723 13.952C132.662 14.8693 133.131 16.128 133.131 17.728C133.131 19.8187 132.353 21.3867 130.795 22.432C129.238 23.4773 126.977 24 124.011 24H113.515V1.28ZM123.595 19.2C124.555 19.2 125.334 19.008 125.931 18.624C126.55 18.2187 126.859 17.632 126.859 16.864C126.859 16.0747 126.561 15.488 125.963 15.104C125.366 14.6987 124.577 14.496 123.595 14.496H119.787V19.2H123.595ZM122.795 10.4C123.734 10.4 124.481 10.2187 125.035 9.856C125.611 9.49333 125.899 8.96 125.899 8.256C125.899 7.50933 125.622 6.96533 125.067 6.624C124.513 6.26133 123.755 6.08 122.795 6.08H119.787V10.4H122.795ZM136.484 1.28H142.756V10.048H149.508V1.28H155.78V24H149.508V15.072H142.756V24H136.484V1.28ZM169.142 24.512C167.137 24.512 165.387 24.1493 163.894 23.424C162.422 22.6987 161.281 21.664 160.47 20.32C159.659 18.976 159.254 17.408 159.254 15.616V1.248H165.526V15.616C165.526 16.8747 165.835 17.8347 166.454 18.496C167.073 19.1573 167.969 19.488 169.142 19.488C170.315 19.488 171.211 19.1573 171.83 18.496C172.47 17.8347 172.79 16.8747 172.79 15.616V1.248H179.062V15.616C179.062 17.408 178.657 18.976 177.846 20.32C177.035 21.664 175.883 22.6987 174.39 23.424C172.897 24.1493 171.147 24.512 169.142 24.512ZM182.547 1.28H192.083C195.048 1.28 197.309 1.792 198.867 2.816C200.424 3.81867 201.203 5.376 201.203 7.488C201.203 8.85333 200.797 9.94133 199.987 10.752C199.197 11.5413 198.035 12.032 196.499 12.224V12.288C198.397 12.48 199.816 13.0347 200.755 13.952C201.693 14.8693 202.163 16.128 202.163 17.728C202.163 19.8187 201.384 21.3867 199.827 22.432C198.269 23.4773 196.008 24 193.043 24H182.547V1.28ZM192.627 19.2C193.587 19.2 194.365 19.008 194.963 18.624C195.581 18.2187 195.891 17.632 195.891 16.864C195.891 16.0747 195.592 15.488 194.995 15.104C194.397 14.6987 193.608 14.496 192.627 14.496H188.819V19.2H192.627ZM191.827 10.4C192.765 10.4 193.512 10.2187 194.067 9.856C194.643 9.49333 194.931 8.96 194.931 8.256C194.931 7.50933 194.653 6.96533 194.099 6.624C193.544 6.26133 192.787 6.08 191.827 6.08H188.819V10.4H191.827Z" fill="#00A264"/>
</svg>
